<svg xmlns="http://www.w3.org/2000/svg" viewBox="0 0 128 128" width="128" height="128">
  <!-- background circle -->
  <circle cx="64" cy="64" r="60" fill="#1a1b26" stroke="#7aa2f7" stroke-width="3"/>
  <!-- terminal window -->
  <rect x="28" y="32" width="72" height="52" rx="6" fill="#24283b" stroke="#565f89" stroke-width="1.5"/>
  <!-- title bar dots -->
  <circle cx="38" cy="40" r="2.5" fill="#f7768e"/>
  <circle cx="46" cy="40" r="2.5" fill="#e0af68"/>
  <circle cx="54" cy="40" r="2.5" fill="#9ece6a"/>
  <!-- list lines (session list) -->
  <rect x="34" y="50" width="4" height="3" rx="1" fill="#7aa2f7"/>
  <rect x="42" y="50" width="32" height="3" rx="1" fill="#a9b1d6"/>
  <rect x="34" y="57" width="4" height="3" rx="1" fill="#bb9af7"/>
  <rect x="42" y="57" width="28" height="3" rx="1" fill="#565f89"/>
  <rect x="34" y="64" width="4" height="3" rx="1" fill="#bb9af7"/>
  <rect x="42" y="64" width="36" height="3" rx="1" fill="#565f89"/>
  <rect x="34" y="71" width="4" height="3" rx="1" fill="#bb9af7"/>
  <rect x="42" y="71" width="24" height="3" rx="1" fill="#565f89"/>
  <!-- droid gear icon -->
  <g transform="translate(88, 82)">
    <circle cx="0" cy="0" r="10" fill="none" stroke="#7aa2f7" stroke-width="2.5"/>
    <circle cx="0" cy="0" r="4" fill="#7aa2f7"/>
    <line x1="0" y1="-13" x2="0" y2="-8" stroke="#7aa2f7" stroke-width="2.5" stroke-linecap="round"/>
    <line x1="0" y1="8" x2="0" y2="13" stroke="#7aa2f7" stroke-width="2.5" stroke-linecap="round"/>
    <line x1="-13" y1="0" x2="-8" y2="0" stroke="#7aa2f7" stroke-width="2.5" stroke-linecap="round"/>
    <line x1="8" y1="0" x2="13" y2="0" stroke="#7aa2f7" stroke-width="2.5" stroke-linecap="round"/>
    <line x1="-9" y1="-9" x2="-6" y2="-6" stroke="#7aa2f7" stroke-width="2.5" stroke-linecap="round"/>
    <line x1="6" y1="6" x2="9" y2="9" stroke="#7aa2f7" stroke-width="2.5" stroke-linecap="round"/>
    <line x1="9" y1="-9" x2="6" y2="-6" stroke="#7aa2f7" stroke-width="2.5" stroke-linecap="round"/>
    <line x1="-6" y1="6" x2="-9" y2="9" stroke="#7aa2f7" stroke-width="2.5" stroke-linecap="round"/>
  </g>
</svg>
